<svg width="91" height="62" viewBox="0 0 91 62" fill="none" xmlns="http://www.w3.org/2000/svg">
<path d="M0 3C0 1.34315 1.34315 0 3 0H88C89.6569 0 91 1.34315 91 3V32C91 33.6569 89.6569 35 88 35H3C1.34315 35 0 33.6569 0 32V3Z" fill="black"/>
<path d="M89.957 53.5879C89.957 54.6914 89.9424 55.7852 89.9131 56.8691C89.8936 57.9434 89.8594 59.0273 89.8105 60.1211L81.373 59.9746C81.666 58.2461 81.9199 56.5225 82.1348 54.8037C82.3496 53.0752 82.457 51.332 82.457 49.5742C82.457 49.4473 82.4521 49.2422 82.4424 48.959C82.4326 48.6758 82.4131 48.3584 82.3838 48.0068C82.3545 47.6455 82.3105 47.2793 82.252 46.9082C82.2031 46.5273 82.1299 46.1807 82.0322 45.8682C81.9443 45.5557 81.832 45.3018 81.6953 45.1064C81.5684 44.9014 81.4121 44.7988 81.2266 44.7988C80.8945 44.7988 80.6113 44.8965 80.377 45.0918C80.1523 45.2871 79.9619 45.541 79.8057 45.8535C79.6592 46.1562 79.542 46.498 79.4541 46.8789C79.3662 47.2598 79.2979 47.6406 79.249 48.0215C79.21 48.4023 79.1807 48.7637 79.1611 49.1055C79.1514 49.4375 79.1465 49.7109 79.1465 49.9258C79.0977 51.6543 79.0586 53.373 79.0293 55.082C79 56.7812 78.9609 58.5 78.9121 60.2383L71.4414 60.5605C71.6367 57.1133 71.8223 53.6855 71.998 50.2773C72.1836 46.8691 72.3301 43.4414 72.4375 39.9941L79.3516 39.6426L79.293 41.9863C79.5664 41.6543 79.8594 41.3418 80.1719 41.0488C80.4941 40.7559 80.8359 40.5068 81.1973 40.3018C81.5586 40.0869 81.9395 39.9209 82.3398 39.8037C82.75 39.6768 83.1797 39.6133 83.6289 39.6133C84.459 39.6133 85.1865 39.75 85.8115 40.0234C86.4365 40.2969 86.9736 40.668 87.4229 41.1367C87.8721 41.6055 88.248 42.1621 88.5508 42.8066C88.8535 43.4414 89.0977 44.1201 89.2832 44.8428C89.4688 45.5654 89.6104 46.3223 89.708 47.1133C89.8057 47.8945 89.8691 48.666 89.8984 49.4277C89.9375 50.1895 89.957 50.9268 89.957 51.6396C89.957 52.3525 89.957 53.002 89.957 53.5879Z" fill="black"/>
<path d="M69.9287 49.7793C69.9287 50.668 69.8262 51.5273 69.6211 52.3574C69.416 53.1777 69.1182 53.9492 68.7275 54.6719C68.3467 55.3945 67.8779 56.0586 67.3213 56.6641C66.7744 57.2598 66.1543 57.7725 65.4609 58.2021C64.7773 58.6318 64.0303 58.9688 63.2197 59.2129C62.4092 59.4473 61.5498 59.5645 60.6416 59.5645C59.7627 59.5645 58.9229 59.4521 58.1221 59.2275C57.3311 59.0029 56.5889 58.6904 55.8955 58.29C55.2021 57.8799 54.5723 57.3916 54.0059 56.8252C53.4492 56.249 52.9707 55.6143 52.5703 54.9209C52.1797 54.2178 51.8721 53.4658 51.6475 52.665C51.4326 51.8643 51.3252 51.0293 51.3252 50.1602C51.3252 49.3105 51.4277 48.4805 51.6328 47.6699C51.8379 46.8496 52.1309 46.0781 52.5117 45.3555C52.9023 44.6328 53.3711 43.9688 53.918 43.3633C54.4648 42.7578 55.0752 42.2354 55.749 41.7959C56.4326 41.3564 57.1699 41.0146 57.9609 40.7705C58.752 40.5264 59.5869 40.4043 60.4658 40.4043C61.8818 40.4043 63.1709 40.624 64.333 41.0635C65.5049 41.5029 66.501 42.1328 67.3213 42.9531C68.1514 43.7637 68.791 44.75 69.2402 45.9121C69.6992 47.0645 69.9287 48.3535 69.9287 49.7793ZM63.4248 50.1602C63.4248 49.7402 63.3613 49.335 63.2344 48.9443C63.1172 48.5439 62.9414 48.1924 62.707 47.8896C62.4727 47.5771 62.1797 47.3281 61.8281 47.1426C61.4863 46.9473 61.0908 46.8496 60.6416 46.8496C60.1826 46.8496 59.7725 46.9326 59.4111 47.0986C59.0498 47.2646 58.7373 47.4941 58.4736 47.7871C58.2197 48.0703 58.0244 48.4072 57.8877 48.7979C57.751 49.1787 57.6826 49.584 57.6826 50.0137C57.6826 50.4238 57.7412 50.834 57.8584 51.2441C57.9756 51.6543 58.1514 52.0254 58.3857 52.3574C58.6201 52.6895 58.9082 52.958 59.25 53.1631C59.6016 53.3682 60.0068 53.4707 60.4658 53.4707C60.9248 53.4707 61.335 53.3828 61.6963 53.207C62.0674 53.0215 62.3799 52.7773 62.6338 52.4746C62.8877 52.1621 63.083 51.8057 63.2197 51.4053C63.3564 51.0049 63.4248 50.5898 63.4248 50.1602Z" fill="black"/>
<path d="M50.1348 53.2363L49.5195 59.7402L37.1855 60.707L37.6543 39.7891H45.2715L44.1875 53.2363H50.1348Z" fill="black"/>
<path d="M35.9805 59.7402L28.7148 60.6777L27.8359 57.3672H24.4961L23.7637 60.6777L16.293 59.9453L22.123 40.4336L30.2676 40.0234L35.9805 59.7402ZM27.3086 52.8848L26.1953 47.7871L25.1113 52.8848H27.3086Z" fill="black"/>
<path d="M15.7617 53.5C15.7617 54.8379 15.5273 55.9951 15.0586 56.9717C14.5996 57.9385 13.9648 58.7393 13.1543 59.374C12.3535 59.999 11.4111 60.4629 10.3271 60.7656C9.25293 61.0586 8.0957 61.2051 6.85547 61.2051C6.37695 61.2051 5.84961 61.1416 5.27344 61.0146C4.70703 60.8877 4.13086 60.7314 3.54492 60.5459C2.95898 60.3506 2.39258 60.1455 1.8457 59.9307C1.30859 59.7061 0.830078 59.4961 0.410156 59.3008L1.05469 53.5586C1.88477 54.0566 2.80273 54.4375 3.80859 54.7012C4.82422 54.9551 5.82031 55.082 6.79688 55.082C6.98242 55.082 7.20703 55.0771 7.4707 55.0674C7.73438 55.0479 7.9834 55.0039 8.21777 54.9355C8.46191 54.8574 8.66699 54.7451 8.83301 54.5986C8.99902 54.4521 9.08203 54.2422 9.08203 53.9688C9.08203 53.7832 9.02344 53.627 8.90625 53.5C8.78906 53.3633 8.6377 53.2559 8.45215 53.1777C8.2666 53.0898 8.05664 53.0264 7.82227 52.9873C7.58789 52.9385 7.3584 52.9043 7.13379 52.8848C6.90918 52.8652 6.69922 52.8555 6.50391 52.8555C6.30859 52.8555 6.15234 52.8555 6.03516 52.8555C5.19531 52.8555 4.42871 52.7236 3.73535 52.46C3.05176 52.1963 2.46094 51.8252 1.96289 51.3467C1.47461 50.8584 1.09375 50.2725 0.820312 49.5889C0.546875 48.8955 0.410156 48.1289 0.410156 47.2891C0.410156 46.1367 0.639648 45.1064 1.09863 44.1982C1.56738 43.2803 2.1875 42.5039 2.95898 41.8691C3.74023 41.2246 4.63379 40.7314 5.63965 40.3896C6.64551 40.0479 7.68555 39.877 8.75977 39.877C9.23828 39.877 9.73145 39.8965 10.2393 39.9355C10.7471 39.9648 11.25 40.0234 11.748 40.1113C12.2559 40.1992 12.749 40.3115 13.2275 40.4482C13.7061 40.585 14.1602 40.7559 14.5898 40.9609L14.0332 46.9082C13.3691 46.6836 12.6709 46.498 11.9385 46.3516C11.2158 46.1953 10.5078 46.1172 9.81445 46.1172C9.6875 46.1172 9.52148 46.1221 9.31641 46.1318C9.12109 46.1318 8.91113 46.1465 8.68652 46.1758C8.47168 46.1953 8.25195 46.2295 8.02734 46.2783C7.80273 46.3271 7.60254 46.3955 7.42676 46.4834C7.25098 46.5615 7.10938 46.6689 7.00195 46.8057C6.89453 46.9424 6.8457 47.1035 6.85547 47.2891C6.86523 47.5039 6.94336 47.6699 7.08984 47.7871C7.24609 47.9043 7.44141 47.9922 7.67578 48.0508C7.91992 48.0996 8.18359 48.124 8.4668 48.124C8.75977 48.124 9.04785 48.1191 9.33105 48.1094C9.61426 48.0898 9.87793 48.0752 10.1221 48.0654C10.3662 48.0459 10.5664 48.041 10.7227 48.0508C11.5039 48.0996 12.207 48.2656 12.832 48.5488C13.457 48.832 13.9844 49.208 14.4141 49.6768C14.8535 50.1455 15.1855 50.707 15.4102 51.3613C15.6445 52.0059 15.7617 52.7188 15.7617 53.5Z" fill="black"/>
<path d="M85.3555 9.07422L78.8809 16.7793L84.8281 26.8574L78.0312 28.0586L73.5781 22.0234L73.3438 27.7656L67.25 28L67.7188 7.02344L74.5449 7.4043L74.0176 13.4395L78.2656 7.31641L85.3555 9.07422Z" fill="#00F799"/>
<path d="M64.4736 16.7793C64.4736 17.668 64.3711 18.5273 64.166 19.3574C63.9609 20.1777 63.6631 20.9492 63.2725 21.6719C62.8916 22.3945 62.4229 23.0586 61.8662 23.6641C61.3193 24.2598 60.6992 24.7725 60.0059 25.2021C59.3223 25.6318 58.5752 25.9688 57.7646 26.2129C56.9541 26.4473 56.0947 26.5645 55.1865 26.5645C54.3076 26.5645 53.4678 26.4521 52.667 26.2275C51.876 26.0029 51.1338 25.6904 50.4404 25.29C49.7471 24.8799 49.1172 24.3916 48.5508 23.8252C47.9941 23.249 47.5156 22.6143 47.1152 21.9209C46.7246 21.2178 46.417 20.4658 46.1924 19.665C45.9775 18.8643 45.8701 18.0293 45.8701 17.1602C45.8701 16.3105 45.9727 15.4805 46.1777 14.6699C46.3828 13.8496 46.6758 13.0781 47.0566 12.3555C47.4473 11.6328 47.916 10.9688 48.4629 10.3633C49.0098 9.75781 49.6201 9.23535 50.2939 8.7959C50.9775 8.35645 51.7148 8.01465 52.5059 7.77051C53.2969 7.52637 54.1318 7.4043 55.0107 7.4043C56.4268 7.4043 57.7158 7.62402 58.8779 8.06348C60.0498 8.50293 61.0459 9.13281 61.8662 9.95312C62.6963 10.7637 63.3359 11.75 63.7852 12.9121C64.2441 14.0645 64.4736 15.3535 64.4736 16.7793ZM57.9697 17.1602C57.9697 16.7402 57.9062 16.335 57.7793 15.9443C57.6621 15.5439 57.4863 15.1924 57.252 14.8896C57.0176 14.5771 56.7246 14.3281 56.373 14.1426C56.0312 13.9473 55.6357 13.8496 55.1865 13.8496C54.7275 13.8496 54.3174 13.9326 53.9561 14.0986C53.5947 14.2646 53.2822 14.4941 53.0186 14.7871C52.7646 15.0703 52.5693 15.4072 52.4326 15.7979C52.2959 16.1787 52.2275 16.584 52.2275 17.0137C52.2275 17.4238 52.2861 17.834 52.4033 18.2441C52.5205 18.6543 52.6963 19.0254 52.9307 19.3574C53.165 19.6895 53.4531 19.958 53.7949 20.1631C54.1465 20.3682 54.5518 20.4707 55.0107 20.4707C55.4697 20.4707 55.8799 20.3828 56.2412 20.207C56.6123 20.0215 56.9248 19.7773 57.1787 19.4746C57.4326 19.1621 57.6279 18.8057 57.7646 18.4053C57.9014 18.0049 57.9697 17.5898 57.9697 17.1602Z" fill="#00F799"/>
<path d="M43.3428 16.7793C43.3428 17.668 43.2402 18.5273 43.0352 19.3574C42.8301 20.1777 42.5322 20.9492 42.1416 21.6719C41.7607 22.3945 41.292 23.0586 40.7354 23.6641C40.1885 24.2598 39.5684 24.7725 38.875 25.2021C38.1914 25.6318 37.4443 25.9688 36.6338 26.2129C35.8232 26.4473 34.9639 26.5645 34.0557 26.5645C33.1768 26.5645 32.3369 26.4521 31.5361 26.2275C30.7451 26.0029 30.0029 25.6904 29.3096 25.29C28.6162 24.8799 27.9863 24.3916 27.4199 23.8252C26.8633 23.249 26.3848 22.6143 25.9844 21.9209C25.5938 21.2178 25.2861 20.4658 25.0615 19.665C24.8467 18.8643 24.7393 18.0293 24.7393 17.1602C24.7393 16.3105 24.8418 15.4805 25.0469 14.6699C25.252 13.8496 25.5449 13.0781 25.9258 12.3555C26.3164 11.6328 26.7852 10.9688 27.332 10.3633C27.8789 9.75781 28.4893 9.23535 29.1631 8.7959C29.8467 8.35645 30.584 8.01465 31.375 7.77051C32.166 7.52637 33.001 7.4043 33.8799 7.4043C35.2959 7.4043 36.585 7.62402 37.7471 8.06348C38.9189 8.50293 39.915 9.13281 40.7354 9.95312C41.5654 10.7637 42.2051 11.75 42.6543 12.9121C43.1133 14.0645 43.3428 15.3535 43.3428 16.7793ZM36.8389 17.1602C36.8389 16.7402 36.7754 16.335 36.6484 15.9443C36.5312 15.5439 36.3555 15.1924 36.1211 14.8896C35.8867 14.5771 35.5938 14.3281 35.2422 14.1426C34.9004 13.9473 34.5049 13.8496 34.0557 13.8496C33.5967 13.8496 33.1865 13.9326 32.8252 14.0986C32.4639 14.2646 32.1514 14.4941 31.8877 14.7871C31.6338 15.0703 31.4385 15.4072 31.3018 15.7979C31.165 16.1787 31.0967 16.584 31.0967 17.0137C31.0967 17.4238 31.1553 17.834 31.2725 18.2441C31.3896 18.6543 31.5654 19.0254 31.7998 19.3574C32.0342 19.6895 32.3223 19.958 32.6641 20.1631C33.0156 20.3682 33.4209 20.4707 33.8799 20.4707C34.3389 20.4707 34.749 20.3828 35.1104 20.207C35.4814 20.0215 35.7939 19.7773 36.0479 19.4746C36.3018 19.1621 36.4971 18.8057 36.6338 18.4053C36.7705 18.0049 36.8389 17.5898 36.8389 17.1602Z" fill="#00F799"/>
<path d="M22.7979 22.7852C22.7979 23.5957 22.6465 24.2939 22.3438 24.8799C22.0508 25.4658 21.6553 25.9639 21.1572 26.374C20.6592 26.7842 20.083 27.1211 19.4287 27.3848C18.7842 27.6387 18.1104 27.8389 17.4072 27.9854C16.7041 28.1318 15.9961 28.2295 15.2832 28.2783C14.5801 28.3271 13.9209 28.3516 13.3057 28.3516C12.7002 28.3516 12.0703 28.3271 11.416 28.2783C10.7715 28.2393 10.127 28.166 9.48242 28.0586C8.83789 27.9512 8.20312 27.8096 7.57812 27.6338C6.95312 27.4482 6.3623 27.2188 5.80566 26.9453L5.77637 8.07812C6.32324 7.85352 6.9043 7.65332 7.51953 7.47754C8.13477 7.29199 8.75977 7.14062 9.39453 7.02344C10.0391 6.89648 10.6787 6.80371 11.3135 6.74512C11.9482 6.67676 12.5635 6.64258 13.1592 6.64258C13.8525 6.64258 14.5508 6.68652 15.2539 6.77441C15.9668 6.8623 16.6504 7.00879 17.3047 7.21387C17.959 7.41895 18.5693 7.6875 19.1357 8.01953C19.7021 8.3418 20.1953 8.74219 20.6152 9.2207C21.0449 9.69922 21.377 10.2559 21.6113 10.8906C21.8555 11.5254 21.9775 12.2578 21.9775 13.0879C21.9775 13.6348 21.8994 14.1475 21.7432 14.626C21.5869 15.1045 21.3623 15.5342 21.0693 15.915C20.7764 16.2959 20.4199 16.623 20 16.8965C19.5801 17.1602 19.1064 17.3555 18.5791 17.4824C19.2139 17.6484 19.79 17.8926 20.3076 18.2148C20.835 18.5371 21.2793 18.9277 21.6406 19.3867C22.0117 19.8457 22.2949 20.3633 22.4902 20.9395C22.6953 21.5156 22.7979 22.1309 22.7979 22.7852ZM15.3564 14.4355C15.3564 14.1523 15.2979 13.9131 15.1807 13.7178C15.0635 13.5127 14.917 13.3467 14.7412 13.2197C14.5752 13.0928 14.3896 13 14.1846 12.9414C13.9893 12.8828 13.8135 12.8535 13.6572 12.8535C13.4619 12.8535 13.2715 12.8828 13.0859 12.9414C12.9004 13 12.7197 13.0684 12.5439 13.1465L12.4561 16.3984C12.6807 16.3984 12.959 16.3789 13.291 16.3398C13.623 16.3008 13.9404 16.2178 14.2432 16.0908C14.5557 15.9541 14.8193 15.7588 15.0342 15.5049C15.249 15.2412 15.3564 14.8848 15.3564 14.4355ZM13.2764 19.2109C12.9932 19.2109 12.7197 19.2402 12.4561 19.2988L12.3975 22.6387C12.5439 22.668 12.6855 22.6973 12.8223 22.7266C12.9688 22.7461 13.1104 22.7559 13.2471 22.7559C13.4521 22.7559 13.6768 22.7363 13.9209 22.6973C14.165 22.6484 14.3945 22.5605 14.6094 22.4336C14.8242 22.2969 15 22.1162 15.1367 21.8916C15.2832 21.667 15.3564 21.3691 15.3564 20.998C15.3564 20.627 15.2832 20.3242 15.1367 20.0898C15 19.8555 14.8291 19.6748 14.624 19.5479C14.4189 19.4111 14.1943 19.3232 13.9502 19.2842C13.7061 19.2354 13.4814 19.2109 13.2764 19.2109Z" fill="#00F799"/>
<path d="M44 17.5C44 23.299 39.5228 28 34 28C28.4772 28 24 23.299 24 17.5C24 11.701 28.4772 7 34 7C39.5228 7 44 11.701 44 17.5Z" fill="white"/>
<path d="M44 17.5C44 21.0899 41.3137 24 38 24C34.6863 24 32 21.0899 32 17.5C32 13.9101 34.6863 11 38 11C41.3137 11 44 13.9101 44 17.5Z" fill="black"/>
<path d="M65 17.5C65 23.299 60.5228 28 55 28C49.4772 28 45 23.299 45 17.5C45 11.701 49.4772 7 55 7C60.5228 7 65 11.701 65 17.5Z" fill="white"/>
<path d="M65 17.5C65 21.0899 62.3137 24 59 24C55.6863 24 53 21.0899 53 17.5C53 13.9101 55.6863 11 59 11C62.3137 11 65 13.9101 65 17.5Z" fill="black"/>
</svg>
